<svg width="21" height="21" viewBox="0 0 21 21" fill="none" xmlns="http://www.w3.org/2000/svg">
<path d="M3.06244 3.28088C3.06244 3.22287 3.08549 3.16723 3.12651 3.1262C3.16753 3.08518 3.22317 3.06213 3.28119 3.06213H15.0937C15.1517 3.06213 15.2073 3.08518 15.2484 3.1262C15.2894 3.16723 15.3124 3.22287 15.3124 3.28088V12.0309C15.3124 12.2049 15.3816 12.3719 15.5047 12.4949C15.6277 12.618 15.7946 12.6871 15.9687 12.6871C16.1427 12.6871 16.3097 12.618 16.4327 12.4949C16.5558 12.3719 16.6249 12.2049 16.6249 12.0309V3.28088C16.6249 2.87477 16.4636 2.48529 16.1764 2.19813C15.8893 1.91096 15.4998 1.74963 15.0937 1.74963H3.28119C2.87508 1.74963 2.4856 1.91096 2.19843 2.19813C1.91127 2.48529 1.74994 2.87477 1.74994 3.28088V17.7184C1.74994 18.5636 2.43594 19.2496 3.28119 19.2496H9.40619C9.58024 19.2496 9.74716 19.1805 9.87023 19.0574C9.9933 18.9344 10.0624 18.7674 10.0624 18.5934C10.0624 18.4193 9.9933 18.2524 9.87023 18.1293C9.74716 18.0063 9.58024 17.9371 9.40619 17.9371H3.28119C3.22317 17.9371 3.16753 17.9141 3.12651 17.8731C3.08549 17.832 3.06244 17.7764 3.06244 17.7184V3.28088Z" fill="#898886"/>
<path d="M5.46881 6.12537C5.29476 6.12537 5.12784 6.19451 5.00477 6.31758C4.8817 6.44065 4.81256 6.60757 4.81256 6.78162C4.81256 6.95566 4.8817 7.12258 5.00477 7.24565C5.12784 7.36873 5.29476 7.43787 5.46881 7.43787H12.9063C13.0804 7.43787 13.2473 7.36873 13.3703 7.24565C13.4934 7.12258 13.5626 6.95566 13.5626 6.78162C13.5626 6.60757 13.4934 6.44065 13.3703 6.31758C13.2473 6.19451 13.0804 6.12537 12.9063 6.12537H5.46881ZM4.81256 10.2816C4.81256 10.1076 4.8817 9.94065 5.00477 9.81758C5.12784 9.69451 5.29476 9.62537 5.46881 9.62537H9.40631C9.58036 9.62537 9.74728 9.69451 9.87035 9.81758C9.99342 9.94065 10.0626 10.1076 10.0626 10.2816C10.0626 10.4557 9.99342 10.6226 9.87035 10.7457C9.74728 10.8687 9.58036 10.9379 9.40631 10.9379H5.46881C5.29476 10.9379 5.12784 10.8687 5.00477 10.7457C4.8817 10.6226 4.81256 10.4557 4.81256 10.2816ZM19.0576 14.2454C19.122 14.1853 19.1738 14.1128 19.2096 14.0323C19.2455 13.9518 19.2648 13.8649 19.2663 13.7768C19.2679 13.6887 19.2517 13.6012 19.2187 13.5195C19.1857 13.4378 19.1365 13.3635 19.0742 13.3012C19.0119 13.2389 18.9377 13.1898 18.856 13.1568C18.7742 13.1238 18.6867 13.1075 18.5986 13.1091C18.5105 13.1107 18.4236 13.1299 18.3431 13.1658C18.2626 13.2017 18.1901 13.2534 18.1301 13.3179L13.7813 17.6666L12.0576 15.9429C11.9975 15.8784 11.925 15.8267 11.8445 15.7908C11.764 15.7549 11.6771 15.7357 11.589 15.7341C11.5009 15.7325 11.4134 15.7488 11.3317 15.7818C11.2499 15.8148 11.1757 15.8639 11.1134 15.9262C11.0511 15.9885 11.002 16.0628 10.969 16.1445C10.9359 16.2262 10.9197 16.3137 10.9213 16.4018C10.9228 16.4899 10.9421 16.5768 10.978 16.6573C11.0139 16.7378 11.0656 16.8103 11.1301 16.8704L13.3176 19.0579C13.4406 19.1808 13.6074 19.2498 13.7813 19.2498C13.9552 19.2498 14.122 19.1808 14.2451 19.0579L19.0576 14.2454Z" fill="#898886"/>
<path fill-rule="evenodd" clip-rule="evenodd" d="M4.77271 13.0772C4.77271 12.7082 5.02912 12.4091 5.34543 12.4091L12.7909 12.4091C13.1072 12.4091 13.3636 12.7082 13.3636 13.0772C13.3636 13.4463 13.1072 13.7454 12.7909 13.7454L5.34543 13.7454C5.02912 13.7454 4.7727 13.4463 4.77271 13.0772Z" fill="#898886"/>
</svg>
