<svg width="18" height="20" viewBox="0 0 18 20" fill="none" xmlns="http://www.w3.org/2000/svg">
<path fill-rule="evenodd" clip-rule="evenodd" d="M6.17157 3.17157C6.92172 2.42143 7.93913 2 9 2C10.0609 2 11.0783 2.42143 11.8284 3.17157C12.5786 3.92172 13 4.93913 13 6C13 7.06087 12.5786 8.07828 11.8284 8.82843C11.0783 9.57857 10.0609 10 9 10C7.93913 10 6.92172 9.57857 6.17157 8.82843C5.42143 8.07828 5 7.06087 5 6C5 4.93913 5.42143 3.92172 6.17157 3.17157ZM7.51508 7.48492C7.9089 7.87875 8.44305 8.1 9 8.1C9.27578 8.1 9.54885 8.04568 9.80363 7.94015C10.0584 7.83461 10.2899 7.67993 10.4849 7.48492C10.6799 7.28992 10.8346 7.05842 10.9401 6.80364C11.0457 6.54885 11.1 6.27578 11.1 6C11.1 5.72422 11.0457 5.45115 10.9401 5.19636C10.8346 4.94158 10.6799 4.71008 10.4849 4.51508C10.2899 4.32007 10.0584 4.16539 9.80363 4.05985C9.54885 3.95432 9.27578 3.9 9 3.9C8.44305 3.9 7.9089 4.12125 7.51508 4.51508C7.12125 4.9089 6.9 5.44305 6.9 6C6.9 6.55695 7.12125 7.0911 7.51508 7.48492ZM1 15C1 12.33 6.33 11 9 11C11.67 11 17 12.33 17 15V16C17 17.1046 16.1046 18 15 18H3C1.89543 18 1 17.1046 1 16V15ZM2.9 15C2.9 15.6075 3.39249 16.1 4 16.1H14C14.6075 16.1 15.1 15.6075 15.1 15C15.1 14.36 11.97 12.9 9 12.9C6 12.9 2.9 14.36 2.9 15Z" fill="#898886"/>
</svg>
